<svg width="20" height="20" viewBox="0 0 20 20" fill="none" xmlns="http://www.w3.org/2000/svg">
<path fill-rule="evenodd" clip-rule="evenodd" d="M4.65841 2.29102C4.23497 2.29102 3.80252 2.46262 3.36353 2.89476L3.3588 2.89942L3.35397 2.90397C2.97501 3.26148 2.71263 3.65231 2.54835 4.06984L2.54706 4.07314C2.37854 4.49442 2.29175 4.95675 2.29175 5.44935C2.29175 6.21824 2.46896 7.04373 2.84237 7.93088C3.22097 8.82193 3.74577 9.73093 4.4064 10.6496C5.078 11.5718 5.83135 12.4551 6.66706 13.2991C7.51136 14.1351 8.39516 14.8889 9.32691 15.5695C10.2426 16.2362 11.1598 16.7615 12.0701 17.1493C12.9657 17.5309 13.7906 17.7077 14.5417 17.7077C15.0457 17.7077 15.5054 17.6145 15.9263 17.4391L15.9297 17.4377C16.2271 17.3158 16.5032 17.144 16.7649 16.9144C16.8637 16.8278 16.9609 16.7324 17.0567 16.6278L17.3192 16.2959C17.4015 16.174 17.4727 16.0476 17.5349 15.9158C17.6378 15.6979 17.6834 15.4806 17.6834 15.2743C17.6834 15.1401 17.6567 15.014 17.5992 14.8675C17.5601 14.7827 17.4928 14.6962 17.361 14.6048L17.3549 14.6007L14.6019 12.6461C14.4191 12.5221 14.2681 12.4392 14.1384 12.3862C14.0199 12.3377 13.9335 12.3243 13.8667 12.3243C13.7866 12.3243 13.7061 12.3437 13.6001 12.4082L13.5824 12.4189L13.5642 12.4284C13.4492 12.4885 13.3001 12.5999 13.117 12.7829L13.1141 12.7858L12.4819 13.4097C12.2797 13.6111 12.0155 13.7327 11.7001 13.7327C11.5767 13.7327 11.4303 13.7188 11.2723 13.6595L11.2588 13.6545L11.2456 13.6488C11.2077 13.6326 11.1728 13.6165 11.1501 13.606C11.1231 13.5937 11.1139 13.5897 11.1097 13.588L11.0787 13.5756L11.0493 13.56C10.7114 13.3812 10.3148 13.1004 9.863 12.7181C9.40508 12.3293 8.959 11.9087 8.50391 11.4621L8.49975 11.4579L8.49558 11.4538C8.05111 11.0007 7.64216 10.549 7.26081 10.1083L7.25626 10.1031C6.87855 9.65668 6.58926 9.2611 6.40973 8.93193L6.38308 8.8831L6.36556 8.8306C6.36556 8.8306 6.36343 8.82468 6.3526 8.7991C6.35169 8.79693 6.35071 8.79468 6.34967 8.79218C6.33928 8.76768 6.32288 8.72901 6.30654 8.68543L6.29404 8.6521L6.28541 8.6176C6.25848 8.50993 6.24175 8.40018 6.24175 8.27435C6.24175 7.99167 6.33808 7.72184 6.55307 7.50417L7.1872 6.84502L7.19147 6.84074C7.36316 6.66906 7.48255 6.51339 7.55598 6.38348L7.56096 6.37468L7.56621 6.36605C7.62936 6.26229 7.65008 6.17354 7.65008 6.09935C7.65008 6.04581 7.63459 5.95537 7.58395 5.83722L7.57986 5.82769C7.52705 5.69858 7.44523 5.54976 7.31787 5.37287L7.31533 5.36934L5.37785 2.63847C5.29656 2.52105 5.19532 2.44064 5.07151 2.38349L5.06292 2.37953C4.94433 2.32261 4.80423 2.29102 4.65841 2.29102ZM2.4914 1.99926C3.11802 1.38433 3.85057 1.04102 4.65841 1.04102C4.97773 1.04102 5.30267 1.10883 5.59959 1.25052C5.90637 1.39292 6.18599 1.61096 6.40338 1.9237L8.33366 4.64435C8.5045 4.8819 8.63816 5.11432 8.73491 5.34964C8.83316 5.58027 8.90008 5.83805 8.90008 6.09935C8.90008 6.42174 8.80616 6.72987 8.63925 7.00717C8.49741 7.25588 8.30364 7.49574 8.07977 7.7202L7.50581 8.31681C7.51162 8.33054 7.51942 8.3491 7.52786 8.3706C7.65258 8.58926 7.87343 8.89702 8.20832 9.29301C8.57508 9.71676 8.96408 10.1461 9.38375 10.5741C9.827 11.009 10.2468 11.4042 10.6707 11.7642C11.0716 12.1033 11.3839 12.3194 11.6109 12.4428C11.6292 12.4508 11.6462 12.4584 11.6599 12.4647L12.2347 11.8975C12.4626 11.6698 12.7069 11.4692 12.9677 11.3298C13.2402 11.1676 13.5373 11.0743 13.8667 11.0743C14.1167 11.0743 14.3636 11.1277 14.6117 11.2292C14.8475 11.3257 15.0783 11.4584 15.3098 11.6158L15.3151 11.6194L18.0758 13.5794C18.3713 13.7848 18.6029 14.0448 18.7472 14.3726L18.7514 14.3823L18.7554 14.3923C18.8616 14.6577 18.9334 14.9453 18.9334 15.2743C18.9334 15.6681 18.8457 16.0674 18.6652 16.4496C18.5733 16.6442 18.4657 16.8344 18.3389 17.0193C18.2369 17.1681 18.1232 17.3125 17.9965 17.4523C17.8662 17.5959 17.7305 17.7302 17.5892 17.8541C17.2297 18.1695 16.837 18.4166 16.4055 18.5936C15.8269 18.8344 15.2038 18.9577 14.5417 18.9577C13.5929 18.9577 12.6012 18.7344 11.5801 18.2993C10.5738 17.8706 9.57466 17.2961 8.59058 16.5796C7.60651 15.8608 6.67361 15.0648 5.78528 14.1851L5.78099 14.1808C4.90131 13.2926 4.10572 12.3603 3.39481 11.3838L3.3927 11.381C2.68736 10.4004 2.11266 9.41018 1.6915 8.41868L1.69072 8.41685C1.26441 7.40439 1.04175 6.41352 1.04175 5.44935C1.04175 4.80922 1.15475 4.18878 1.3858 3.61053C1.62081 3.01396 1.98994 2.47355 2.4914 1.99926Z" fill="#F03535"/>
<path d="M4.65841 2.29102C4.23497 2.29102 3.80252 2.46262 3.36353 2.89476L3.3588 2.89942L3.35397 2.90397C2.97501 3.26148 2.71263 3.65231 2.54835 4.06984L2.54706 4.07314C2.37854 4.49442 2.29175 4.95675 2.29175 5.44935C2.29175 6.21824 2.46896 7.04373 2.84237 7.93088C3.22097 8.82193 3.74577 9.73093 4.4064 10.6496C5.078 11.5718 5.83135 12.4551 6.66706 13.2991C7.51136 14.1351 8.39516 14.8889 9.32691 15.5695C10.2426 16.2362 11.1598 16.7615 12.0701 17.1493C12.9657 17.5309 13.7906 17.7077 14.5417 17.7077C15.0457 17.7077 15.5054 17.6145 15.9263 17.4391L15.9297 17.4377C16.2271 17.3158 16.5032 17.144 16.7649 16.9144C16.8637 16.8278 16.9609 16.7324 17.0567 16.6278L17.3192 16.2959C17.4015 16.174 17.4727 16.0476 17.5349 15.9158C17.6378 15.6979 17.6834 15.4806 17.6834 15.2743C17.6834 15.1401 17.6567 15.014 17.5992 14.8675C17.5601 14.7827 17.4928 14.6962 17.361 14.6048L17.3549 14.6007L14.6019 12.6461C14.4191 12.5221 14.2681 12.4392 14.1384 12.3862C14.0199 12.3377 13.9335 12.3243 13.8667 12.3243C13.7866 12.3243 13.7061 12.3437 13.6001 12.4082L13.5824 12.4189L13.5642 12.4284C13.4492 12.4885 13.3001 12.5999 13.117 12.7829L13.1141 12.7858L12.4819 13.4097C12.2797 13.6111 12.0155 13.7327 11.7001 13.7327C11.5767 13.7327 11.4303 13.7188 11.2723 13.6595L11.2588 13.6545L11.2456 13.6488C11.2077 13.6326 11.1728 13.6165 11.1501 13.606C11.1231 13.5937 11.1139 13.5897 11.1097 13.588L11.0787 13.5756L11.0493 13.56C10.7114 13.3812 10.3148 13.1004 9.863 12.7181C9.40508 12.3293 8.959 11.9087 8.50391 11.4621L8.49975 11.4579L8.49558 11.4538C8.05111 11.0007 7.64216 10.549 7.26081 10.1083L7.25626 10.1031C6.87855 9.65668 6.58926 9.2611 6.40973 8.93193L6.38308 8.8831L6.36556 8.8306C6.36556 8.8306 6.36343 8.82468 6.3526 8.7991L6.34967 8.79218C6.33928 8.76768 6.32288 8.72901 6.30654 8.68543L6.29404 8.6521L6.28541 8.6176C6.25848 8.50993 6.24175 8.40018 6.24175 8.27435C6.24175 7.99167 6.33808 7.72184 6.55307 7.50417L7.1872 6.84502L7.19147 6.84074C7.36316 6.66906 7.48255 6.51339 7.55598 6.38348L7.56096 6.37468L7.56621 6.36605C7.62936 6.26229 7.65008 6.17354 7.65008 6.09935C7.65008 6.04581 7.63459 5.95537 7.58395 5.83722L7.57986 5.82769C7.52705 5.69858 7.44523 5.54976 7.31787 5.37287L7.31533 5.36934L5.37785 2.63847C5.29656 2.52105 5.19532 2.44064 5.07151 2.38349L5.06292 2.37953C4.94433 2.32261 4.80423 2.29102 4.65841 2.29102Z" fill="#F03535"/>
</svg>
