<svg width="20" height="15" viewBox="0 0 20 15" fill="none" xmlns="http://www.w3.org/2000/svg">
<path d="M16.4575 0H2.65322C1.18796 0 0 1.18796 0 2.65322V11.3868C0 12.8521 1.18796 14.04 2.65322 14.04H16.4575C17.9227 14.04 19.1107 12.8521 19.1107 11.3868V2.65322C19.1107 1.18796 17.9227 0 16.4575 0ZM6.65016 9.47306L2.93477 12.6428C2.6727 12.8664 2.27873 12.8353 2.05511 12.573C1.83146 12.3109 1.86255 11.917 2.12491 11.6933L5.84031 8.52365C6.10233 8.29999 6.49627 8.33108 6.71992 8.59344C6.94358 8.85547 6.91248 9.24944 6.65016 9.47306ZM9.55536 8.26804C9.05841 8.26681 8.57669 8.10168 8.20007 7.77598L8.20037 7.77627L8.19917 7.77538C8.19947 7.77568 8.19981 7.77568 8.20007 7.77598L2.4994 2.82813C2.23887 2.60201 2.21113 2.20807 2.43692 1.94788C2.663 1.68734 3.05697 1.65961 3.31713 1.88539L9.01941 6.83447C9.14127 6.94294 9.34208 7.02125 9.55536 7.02002C9.76834 7.02065 9.96576 6.94447 10.0943 6.83235L10.0971 6.82992L15.7936 1.88543C16.0538 1.65965 16.4477 1.68738 16.6738 1.94791C16.8996 2.20807 16.8719 2.60205 16.6113 2.82816L10.9091 7.77751C10.5337 8.09981 10.0526 8.26741 9.55536 8.26804ZM17.0559 12.573C16.8322 12.8353 16.4382 12.8664 16.1763 12.6428L12.4609 9.47306C12.1985 9.24941 12.1674 8.85547 12.3911 8.59344C12.6147 8.33108 13.0087 8.30003 13.2707 8.52365L16.9861 11.6933C17.2484 11.917 17.2795 12.3109 17.0559 12.573Z" fill="#F03535"/>
</svg>
