<svg width="326" height="126" viewBox="0 0 326 126" fill="none" xmlns="http://www.w3.org/2000/svg">
<path d="M269.986 130.103C270.703 130.103 271.421 130.103 272.14 130.103C278.564 130.093 284.973 130.42 291.374 130.934C293.331 131.092 295.294 131.181 297.251 131.333C297.796 131.375 298.727 131.311 298.697 131.889C298.659 132.577 297.756 132.263 297.247 132.263C291.255 132.261 285.258 132.371 279.273 132.15C274.097 131.958 268.923 132.027 263.75 131.883C247.648 131.432 231.543 131.663 215.44 131.737C209.357 131.764 203.275 132.055 197.194 132.254C195.126 132.322 193.124 132.882 191.095 133.227C188.444 133.677 185.79 134.019 183.095 133.999C178.877 133.966 174.655 134.061 170.441 133.897C165.179 133.69 159.92 133.384 154.67 132.911C150.856 132.566 147.021 132.44 143.194 132.238C142.282 132.19 141.376 132.127 140.483 131.939C140.295 131.9 140.111 131.812 140.084 131.585C140.045 131.264 140.301 131.158 140.525 131.131C140.998 131.073 141.48 131.056 141.957 131.054C146.031 131.05 150.107 131.054 154.181 131.056C154.801 131.056 155.422 131.056 156.062 130.868C155.075 130.753 154.09 130.614 153.101 130.524C141.571 129.476 130.014 129.931 118.471 130.042C112.579 130.099 106.684 130.178 100.79 130.24C90.87 130.344 80.9517 130.597 71.0305 130.523C70.3589 130.519 69.6887 130.514 69.0186 130.483C68.695 130.467 68.3283 130.465 68.1716 129.839C70.4897 129.318 72.8928 129.615 75.2771 129.085C75.0038 128.704 74.6472 128.808 74.351 128.804C66.7335 128.688 59.1276 128.239 51.5087 128.089C45.4228 127.969 39.3369 127.985 33.2539 127.848C27.5548 127.719 21.8572 127.513 16.1596 127.333C15.8504 127.323 15.4707 127.416 15.2493 126.907C16.0474 126.423 16.9476 126.474 17.8105 126.426C18.6618 126.38 19.516 126.416 20.3688 126.326C13.63 125.964 6.88834 125.802 0.168254 125.212C0.109293 125.206 0.0603988 125.073 0 124.991C0.0287613 124.585 0.375337 124.616 0.632751 124.577C1.15333 124.5 1.67966 124.417 2.20456 124.421C6.04132 124.445 9.86945 124.207 13.6962 124.021C16.6643 123.877 19.6311 123.765 22.6007 123.708C23.7396 123.686 24.7621 122.972 25.9528 123.093C26.564 123.155 27.1953 123.006 27.8137 123.031C28.4076 123.054 28.6607 122.868 28.7398 122.242C28.9023 120.956 29.0015 121.002 30.1534 120.627C31.3082 120.249 32.3953 120.75 33.5199 120.692C34.0362 120.666 34.0879 121.255 34.1814 121.675C34.505 123.148 34.5035 123.152 36.0193 123.176C36.9785 123.192 37.9362 123.195 38.8954 123.195C40.1082 123.195 40.7448 122.599 40.8052 121.405C40.8253 121.023 40.7865 120.624 40.982 120.276C41.1129 120.044 41.435 119.891 41.5587 120.125C41.8564 120.691 42.4402 120.823 42.8659 121.18C43.2226 121.477 43.1665 121.968 43.2269 122.393C43.2743 122.732 43.329 123.112 43.7877 123.077C44.2206 123.044 44.268 122.664 44.3025 122.326C44.3572 121.801 44.3644 121.268 44.4406 120.745C44.5988 119.671 44.7311 119.565 45.8125 119.494C46.0038 119.481 46.1965 119.485 46.3877 119.487C48.785 119.492 51.1808 119.495 53.5781 119.508C54.3402 119.513 55.0981 119.455 55.6345 120.233C55.9739 120.727 56.6009 120.561 57.1157 120.564C59.6611 120.574 59.5029 120.715 59.5087 118.264C59.523 110.71 59.5245 103.154 59.5461 95.5994C59.5518 93.4355 59.5763 93.434 61.7118 93.4369C62.7184 93.4369 63.7251 93.4427 64.7317 93.4542C65.5845 93.4643 66.4603 93.3445 67.1045 94.1587C67.2455 94.3377 67.6309 94.3435 67.9099 94.3868C68.9539 94.5499 70.008 94.5788 71.0635 94.5904C73.1775 94.6134 73.1746 94.6221 73.1717 96.8063C73.1646 101.089 73.1588 105.371 73.1574 109.654C73.1559 112.927 73.1602 116.198 73.1631 119.471C73.1631 119.856 73.1674 120.24 73.1847 120.626C73.2077 121.14 73.478 121.431 73.9958 121.438C74.8097 121.45 75.6251 121.444 76.439 121.438C77.0099 121.433 77.3349 121.147 77.3594 120.562C77.3781 120.129 77.3853 119.696 77.3853 119.264C77.3896 113.971 77.3853 108.678 77.3982 103.385C77.4025 101.748 77.5737 100.121 77.8368 98.5054C78.5976 93.8527 81.1976 90.6075 85.4528 88.7308C86.5084 88.266 86.8967 87.6943 86.8348 86.5654C86.7485 84.9818 86.8104 83.3909 86.8204 81.803C86.8233 81.3396 86.76 80.8617 87.0333 80.228C87.4891 81.0292 87.4331 81.7452 87.4388 82.4396C87.4733 86.5293 87.5006 90.619 87.5265 94.7087C87.5308 95.432 87.5438 96.1408 87.8156 96.8366C88.0831 97.5194 88.0212 98.2585 88.0241 98.9803C88.0428 104.996 88.0586 111.01 88.0773 117.025C88.0773 117.458 88.0773 117.891 88.1061 118.323C88.1291 118.67 88.201 119.032 88.6597 119.01C89.0106 118.993 89.1228 118.701 89.1544 118.403C89.1904 118.069 89.2062 117.73 89.1961 117.395C89.1429 115.709 89.2767 114.03 89.3788 112.35C89.4464 111.231 89.5585 111.086 90.6428 111.062C92.032 111.03 93.424 111.039 94.8132 111.079C95.8731 111.109 96.0485 111.293 96.0888 112.374C96.1319 113.527 96.096 114.684 96.1319 115.839C96.1823 117.427 97.9036 118.67 99.4208 118.252C99.7961 118.15 100.003 117.93 100.031 117.555C100.059 117.173 100.071 116.787 100.074 116.402C100.098 112.407 100.102 108.414 100.146 104.42C100.17 102.161 100.242 99.9014 100.315 97.6421C100.353 96.4872 100.501 96.3992 101.694 96.301C102.482 96.2361 103.528 96.6994 103.987 95.9979C104.34 95.4565 104.079 94.5095 104.086 93.743C104.093 93.0212 104.092 92.2994 104.1 91.5776C104.107 91.0275 104.345 90.7186 104.921 90.5844C106.181 90.2913 106.288 90.1845 106.318 88.8752C106.378 86.1814 106.38 83.4862 106.405 80.7924C106.413 79.9739 106.414 79.1568 106.436 78.3383C106.441 78.1131 106.43 77.8533 106.784 77.7031C107.103 77.963 107.037 78.3585 107.04 78.7108C107.058 80.5398 107.084 82.3674 107.061 84.1964C107.051 85.0092 107.323 85.5101 108.091 85.8855C111.259 87.4301 112.709 90.2148 113.382 93.5207C113.468 93.9436 113.547 94.3753 113.561 94.8054C113.593 95.7149 113.791 96.4093 114.923 96.3977C115.415 96.3934 115.675 96.7731 115.705 97.2697C115.724 97.557 115.73 97.8471 115.734 98.1344C115.806 104.099 115.995 110.061 115.914 116.028C115.914 116.125 115.914 116.22 115.914 116.317C115.943 117.899 115.986 118.007 117.507 117.981C118.589 117.962 119.227 118.394 119.486 119.534C120.07 119.107 119.893 118.597 119.896 118.179C119.919 114.906 119.919 111.635 119.926 108.362C119.926 107.977 119.926 107.593 119.933 107.207C119.965 105.494 120.043 105.41 121.695 105.318C121.839 105.309 121.99 105.276 122.125 105.308C122.723 105.446 123.107 104.6 123.504 104.807C124.015 105.074 124.46 105.113 124.988 105.098C126.363 105.061 126.628 105.276 126.628 106.631C126.626 110.816 126.97 114.996 126.858 119.183C126.843 119.721 126.721 120.301 127.078 120.854C127.499 120.502 127.358 120.094 127.364 119.744C127.387 118.349 127.391 116.953 127.381 115.557C127.377 114.837 127.59 114.316 128.399 114.281C129.226 114.246 129.425 113.744 129.422 113.024C129.416 111.628 129.42 110.232 129.455 108.837C129.482 107.756 129.532 107.838 130.628 107.485C131.424 107.228 132.127 106.985 132.91 107.476C133.152 107.626 133.51 107.515 133.714 107.306C134.446 106.551 135.086 106.92 135.733 107.42C135.917 107.563 136.11 107.694 136.263 107.804C136.578 107.698 136.556 107.476 136.55 107.298C136.452 104.121 136.964 100.968 136.918 97.7937C136.907 97.0228 137.02 96.2938 137.307 95.546C137.719 94.4662 137.698 93.2825 137.724 92.1276C137.74 91.4101 137.675 90.6811 138.361 90.1614C138.638 89.9506 138.622 89.5594 138.654 89.2231C138.912 86.4961 139.284 83.7821 139.202 81.0277C139.136 78.8162 139.191 76.6017 139.208 74.3872C139.211 73.9411 139.109 73.4489 139.53 72.984C139.969 73.4532 139.845 73.9469 139.849 74.393C139.866 76.3664 139.892 78.3398 139.856 80.3117C139.839 81.2573 140.052 81.9026 140.994 82.3876C143.049 83.4472 143.848 85.3889 143.785 87.56C143.725 89.6345 144.326 91.6281 144.261 93.6881C144.241 94.3493 144.355 95.0307 144.775 95.6095C145.075 96.0238 145.028 96.5262 145.035 97.0055C145.052 98.1604 145.064 99.3152 145.069 100.47C145.072 101.192 145.12 101.878 145.403 102.579C145.768 103.483 145.55 104.482 145.58 105.44C145.601 106.116 145.558 106.792 146.116 107.316C146.335 107.521 146.401 107.825 146.395 108.115C146.377 109.013 146.509 109.797 147.37 110.344C147.743 110.581 147.631 111.138 147.639 111.567C147.658 112.481 147.639 113.396 147.851 114.295C147.95 114.721 148.053 114.99 148.62 114.762C150.139 114.15 150.151 114.179 150.159 112.429C150.17 109.446 150.147 106.464 150.359 103.486C150.41 102.751 150.511 102.156 151.384 102.01C152.009 101.907 152.146 101.371 152.296 100.844C152.609 99.7397 152.831 98.6122 153.255 97.5353C153.492 96.9348 153.863 96.6908 154.441 96.7139C155.59 96.7587 156.742 96.7817 157.883 96.9145C158.902 97.0329 159.206 97.9871 159.436 98.7479C160.09 100.912 160.293 103.152 160.268 105.42C160.231 108.691 160.257 111.964 160.265 115.237C160.265 115.712 160.181 116.198 160.399 116.765C161.276 116.478 162.059 115.891 163.025 115.873C163.423 115.866 163.55 115.501 163.567 115.14C163.586 114.756 163.59 114.371 163.592 113.985C163.605 110.906 163.615 107.825 163.625 104.746C163.626 104.072 163.593 103.399 164.14 102.861C164.295 102.708 164.407 102.432 164.406 102.213C164.4 101.364 164.818 100.729 165.185 99.9966C165.629 99.1117 166.17 98.9442 166.98 98.9587C167.651 98.9702 168.321 98.9702 168.993 98.9572C169.716 98.9442 170.11 99.2792 170.612 99.8552C172.059 101.517 172.374 103.43 172.398 105.498C172.406 106.083 172.163 107.174 172.735 107.135C173.563 107.079 173.11 106.035 173.115 105.452C173.163 96.4064 173.188 87.3594 173.169 78.3123C173.165 76.1931 173.356 74.084 173.373 71.9692C173.379 71.3051 173.445 70.7161 174.274 70.5689C174.731 70.488 174.843 70.1011 174.855 69.6897C174.866 69.2566 174.869 68.8236 174.87 68.3905C174.88 62.2306 174.876 56.0723 174.908 49.9124C174.916 48.2783 175.03 46.6456 175.098 45.0114C175.112 44.6765 175.047 44.2579 175.332 44.0601C176.211 43.4466 176.034 42.5457 176.04 41.7027C176.068 37.8064 176.035 33.9101 176.248 30.0168C176.277 29.487 176.26 28.9615 176.613 28.5067C176.861 28.1906 176.905 27.7965 176.901 27.4096C176.869 24.8169 177.328 22.23 176.951 19.6286C176.756 18.2846 177.184 16.9551 177.199 15.6039C177.246 10.8429 177.342 6.08188 177.427 1.3209C177.434 0.909471 177.354 0.470613 177.679 0C178.155 0.477831 178.041 1.0264 178.046 1.51578C178.067 3.7779 177.982 6.04291 178.086 8.29926C178.279 12.5045 177.834 16.7082 178.657 20.9279C179.373 24.5989 178.881 28.4144 178.978 32.1634C179.009 33.3991 178.819 34.6493 179.454 35.833C179.658 36.2156 179.548 36.7771 179.55 37.2564C179.566 41.3952 179.577 45.5326 179.58 49.6714C179.58 50.4567 179.531 51.229 180.509 51.535C180.867 51.6476 180.949 52.023 180.968 52.3694C180.994 52.8501 181.005 53.3309 181.005 53.8116C181.015 61.5594 181.025 69.3057 181.027 77.0535C181.027 78.2575 181.066 79.4586 181.201 80.6553C181.228 80.8935 181.173 81.1779 181.286 81.3655C182.102 82.7456 181.832 84.2614 181.849 85.7324C181.882 88.6196 181.865 91.5068 181.868 94.394C181.868 95.0711 181.875 95.6947 182.531 96.1841C183.079 96.5926 182.945 97.326 182.947 97.9438C182.961 102.322 182.964 106.702 182.975 111.081C182.978 111.94 182.902 112.794 183.581 113.522C184.017 113.989 183.664 114.752 184.029 115.368C184.641 115.121 185.233 114.812 185.862 114.643C186.898 114.365 187.249 114.616 187.338 115.715C187.409 116.585 187.721 117.284 188.469 117.896C188.823 117.409 188.673 116.878 188.673 116.399C188.692 106.341 188.71 96.2851 188.693 86.2276C188.69 84.3957 188.867 82.5767 188.913 80.7506C188.917 80.6062 188.889 80.4344 188.956 80.3233C189.809 78.9158 189.5 77.3437 189.611 75.8308C189.635 75.4959 189.698 75.1624 189.729 74.8275C189.785 74.1923 190.133 73.8689 190.757 73.8632C191.811 73.8531 192.865 73.8516 193.919 73.8603C194.706 73.8661 195.019 74.3294 195.029 75.0657C195.041 75.8351 195.047 76.606 195.062 77.3754C195.08 78.282 195.009 79.1814 195.534 80.0273C195.836 80.5138 195.675 81.1577 195.688 81.7322C195.973 93.948 195.919 106.167 195.919 118.384C195.919 118.864 195.902 119.348 195.934 119.827C195.967 120.327 195.807 121.027 196.569 121.06C197.373 121.096 197.204 120.389 197.241 119.891C197.263 119.604 197.245 119.313 197.245 119.025C197.25 112.287 197.219 105.55 197.284 98.8143C197.3 97.2062 197.665 95.6124 198.796 94.3291C198.889 94.2237 198.97 94.0923 199.01 93.9595C199.837 91.3105 201.071 88.7626 200.996 85.8855C200.984 85.4423 200.894 84.9356 201.377 84.4837C201.909 85.0929 201.856 85.7931 201.885 86.4095C201.968 88.2587 202.417 89.9723 203.156 91.6844C203.707 92.9605 204.472 94.1169 204.995 95.3497C205.566 96.6951 206.003 98.1965 205.979 99.783C205.913 103.92 205.979 108.059 205.989 112.198C205.995 114.749 205.982 117.298 206 119.849C206.003 120.242 205.839 120.911 206.41 120.903C206.957 120.894 206.806 120.23 206.807 119.83C206.82 113.815 206.816 107.801 206.819 101.785C206.819 101.305 206.83 100.822 206.856 100.343C206.877 99.9403 207 99.5592 207.41 99.4062C208.152 99.129 208.193 98.5314 208.195 97.8774C208.202 95.5677 208.224 93.2579 208.241 90.9482C208.247 90.2278 208.482 89.5941 208.725 88.9098C209.134 87.7607 209.365 86.6 210.314 85.7108C210.66 85.3874 210.542 84.7999 210.503 84.3177C210.445 83.6132 210.553 82.9679 211.144 82.4988C211.61 82.1292 211.685 81.6211 211.691 81.0754C211.698 80.3536 211.699 79.6318 211.735 78.9114C211.751 78.6011 211.668 78.2199 212.174 78.0077C212.496 78.7411 212.332 79.5033 212.346 80.2323C212.365 81.1966 212.309 82.135 213.1 82.9116C213.566 83.3693 213.514 84.0708 213.49 84.6988C213.46 85.4986 213.599 86.229 214.197 86.8166C214.332 86.9494 214.516 87.1125 214.531 87.2757C214.685 88.917 215.98 89.8092 216.891 90.951C217.22 91.3654 217.209 91.8461 217.213 92.3239C217.23 94.1039 217.239 95.8853 217.24 97.6652C217.24 98.3986 217.198 99.1189 218.096 99.4394C218.504 99.5852 218.566 100.023 218.593 100.412C218.624 100.844 218.628 101.277 218.629 101.71C218.647 107.485 218.661 113.259 218.681 119.033C218.683 119.465 218.688 119.901 218.752 120.327C218.809 120.718 219.108 120.87 219.486 120.867C219.869 120.864 220.157 120.691 220.205 120.304C220.264 119.829 220.27 119.345 220.27 118.864C220.285 112.513 220.29 106.161 220.312 99.809C220.315 98.8331 220.07 97.7836 221.206 97.1297C221.577 96.916 221.445 96.3285 221.451 95.9026C221.461 95.1433 221.651 94.5673 222.56 94.5543C222.852 94.5499 223.175 94.4777 223.313 94.2078C223.729 93.4008 224.446 93.447 225.175 93.4629C226.086 93.4831 226.999 93.4542 227.908 93.499C228.981 93.5524 229.166 93.6809 229.29 94.729C229.372 95.4277 229.669 95.712 230.324 95.8752C231.569 96.187 231.576 96.226 231.591 97.5396C231.609 99.3687 231.602 101.196 231.604 103.025C231.606 108.367 231.608 113.708 231.611 119.049C231.611 119.435 231.595 119.822 231.632 120.203C231.709 120.981 231.952 121.177 232.75 121.17C233.528 121.163 233.792 120.969 233.805 120.146C233.851 117.404 233.843 114.661 233.866 111.918C233.874 111.004 233.893 110.09 233.952 109.179C233.989 108.598 234.103 108.027 234.737 107.747C234.957 107.651 235.131 107.464 235.205 107.223C235.926 104.824 237.767 102.755 237.31 100.005C237.272 99.7772 237.323 99.526 237.6 99.2994C238.046 99.5592 237.941 100.031 237.925 100.41C237.868 101.804 238.259 103.03 239.018 104.203C239.481 104.919 239.734 105.772 240.075 106.566C240.15 106.743 240.143 106.991 240.267 107.105C241.365 108.126 241.102 109.462 241.144 110.734C241.206 112.657 241.289 114.578 241.367 116.5C241.374 116.686 241.375 116.884 241.636 117.035C243.056 115.559 244.349 116.355 245.586 117.404C246.105 117.076 245.937 116.599 245.941 116.204C245.966 113.558 245.944 110.91 245.977 108.264C246.017 105.043 245.943 101.821 246.01 98.605C246.112 93.6982 246.096 88.7914 246.168 83.8861C246.174 83.5035 246.109 83.0488 246.285 82.7514C246.919 81.6802 246.762 80.521 246.791 79.3792C246.874 76.0618 246.677 72.7386 247.036 69.4284C247.175 68.1407 247.279 66.8559 247.696 65.6043C248.064 64.4971 247.857 63.3119 247.921 62.1628C247.985 61.0238 248.084 59.9931 248.773 58.9147C249.341 58.0269 249.651 56.8128 249.876 55.6839C249.961 55.2523 250.018 54.7903 250.314 54.48C251.091 53.6687 251.118 52.6812 251.122 51.6577C251.135 49.0607 251.085 46.4608 251.34 43.871C251.378 43.4725 251.259 43.0221 251.698 42.6526C252.174 43.1333 252.016 43.6847 252.03 44.1741C252.113 47.0093 251.945 49.8504 252.246 52.6827C252.313 53.3222 252.493 53.8722 252.805 54.4367C253.408 55.5266 253.96 56.6569 254.088 57.9287C254.128 58.3272 254.259 58.6823 254.541 58.9638C255.283 59.7 255.431 60.6369 255.454 61.6186C255.47 62.2927 255.477 62.9654 255.487 63.6396C255.503 64.5938 255.622 65.4715 256.036 66.4041C256.591 67.6571 256.613 69.1166 256.627 70.5126C256.66 73.5441 256.659 76.5757 256.682 79.6073C256.689 80.5672 256.676 81.5229 257.289 82.3717C257.608 82.8135 257.5 83.3952 257.502 83.9222C257.518 87.4344 257.546 90.9482 257.523 94.4604C257.518 95.419 257.706 96.1841 258.401 96.929C259.794 98.4217 260.364 100.349 260.614 102.319C261.09 106.073 261.781 109.813 261.501 113.63C261.477 113.963 261.515 114.303 261.54 114.639C261.554 114.828 261.674 115.15 261.794 115.076C262.698 114.522 262.588 115.549 262.975 115.781C263.582 116.145 264.287 116.073 264.929 115.896C265.522 115.733 265.438 115.149 265.446 114.678C265.47 112.993 265.477 111.31 265.493 109.625C265.5 108.885 265.53 108.18 266.406 107.864C266.898 107.688 266.879 107.187 266.888 106.753C266.912 105.55 266.93 104.348 266.946 103.144C266.956 102.381 267.04 101.686 267.994 101.527C268.451 101.45 268.562 101.081 268.609 100.668C268.68 100.049 268.609 99.4336 268.481 98.5617C269.393 99.3254 269.62 100.216 269.872 100.997C270.043 101.531 270.265 101.794 270.719 102.01C273.697 103.428 273.194 102.927 273.213 100.45C273.244 96.0715 273.308 91.6902 273.226 87.3132C273.149 83.2668 273.519 79.2406 273.607 75.2028C273.65 73.1962 274.061 71.1968 274.31 69.196C274.352 68.8625 274.331 68.4165 274.629 68.2721C275.619 67.7943 275.552 66.9094 275.6 66.0504C275.606 65.9551 275.613 65.8512 275.652 65.7675C277.169 62.5122 276.904 59.0259 276.973 55.5814C276.992 54.62 276.985 53.6571 277.013 52.6942C277.022 52.3781 276.929 52.0172 277.323 51.7198C277.642 52.0085 277.579 52.3997 277.582 52.7505C277.596 54.4829 277.642 56.2166 277.59 57.9475C277.527 60.0811 277.708 62.2104 278.267 64.2372C278.649 65.6188 278.68 67.1519 279.734 68.3674C280.24 68.952 280.16 69.9207 280.197 70.7334C280.246 71.7988 280.386 72.8353 280.744 73.8458C281.072 74.7683 281.03 75.7413 281.046 76.7027C281.223 87.2396 281.077 97.7778 281.121 108.316C281.134 111.444 281.118 114.571 281.125 117.699C281.129 119.129 281.138 119.139 282.49 119.482C283.03 119.619 283.437 119.926 283.771 120.354C284.1 120.779 284.545 120.883 285.051 120.849C285.495 120.821 285.786 120.618 285.817 120.159C285.853 119.632 285.868 119.103 285.869 118.573C285.889 109.864 285.904 101.153 285.925 92.4437C285.931 90.0401 285.941 90.0401 288.222 89.1379C288.578 88.9964 289.003 88.9329 289.279 88.6961C290.439 87.7029 291.803 88.0018 293.123 88.0061C293.814 88.009 294.191 88.3656 294.221 89.0628C294.243 89.5435 294.252 90.0243 294.252 90.505C294.256 99.8884 294.257 109.272 294.263 118.655C294.263 119.377 294.273 120.099 294.299 120.821C294.312 121.157 294.344 121.542 294.766 121.61C295.228 121.684 295.304 121.304 295.362 120.966C295.464 120.361 295.75 119.892 296.289 119.582C297.01 119.168 297.736 119.149 298.495 119.477C298.888 119.647 299.183 120.011 299.7 120.058C300.1 119.637 299.938 119.082 299.939 118.586C299.961 111.56 299.965 104.535 299.978 97.5093C299.981 95.9627 300.737 95.1813 302.247 95.1649C302.438 95.1635 302.631 95.1692 302.822 95.1577C303.948 95.0942 304.197 94.8083 303.846 93.7025C303.454 92.4683 302.942 91.2701 302.469 90.0632C302.298 89.6287 302.03 89.2245 302.082 88.7178C302.621 88.585 302.692 89.0051 302.812 89.2664C303.419 90.5743 304.015 91.8879 304.578 93.216C305.267 94.843 305.729 95.2111 307.416 94.8661C308.291 94.6871 309.065 94.7058 309.888 94.97C310.246 95.0855 310.644 95.1057 311.025 95.1144C311.759 95.1317 312.043 95.5431 312.061 96.2173C312.072 96.6504 312.076 97.0835 312.076 97.5165C312.086 105.36 312.094 113.204 312.111 121.047C312.111 121.469 312.023 121.908 312.396 122.318C312.396 121.811 312.39 121.304 312.396 120.797C312.417 119.211 312.387 117.62 312.488 116.038C312.558 114.932 312.758 114.768 313.824 114.814C315.545 114.889 317.266 115.023 318.981 115.201C319.914 115.297 320.112 115.54 320.138 116.526C320.181 118.112 320.132 119.702 320.167 121.288C320.177 121.772 319.928 122.608 320.575 122.624C321.283 122.641 321.182 121.776 321.202 121.233C321.251 119.936 321.236 118.635 321.257 117.337C321.264 116.906 321.28 116.47 321.335 116.042C321.408 115.475 321.734 115.209 322.328 115.268C322.837 115.319 323.371 115.512 323.82 115.048C324.316 114.531 324.588 114.856 324.7 115.359C324.792 115.777 324.795 116.218 324.803 116.65C324.826 117.853 324.828 119.056 324.844 120.259C324.849 120.702 324.878 121.189 325.394 121.317C325.997 121.467 326.641 121.551 327.209 121.203C327.523 121.013 327.52 120.627 327.526 120.286C327.541 119.373 327.563 118.457 327.557 117.544C327.553 116.771 327.764 116.204 328.667 116.214C329.438 116.223 329.591 115.681 329.706 115.082C330.085 113.096 330.543 111.13 331.247 109.228C331.65 108.141 332.126 107.09 332.806 106.149C333.509 105.176 334.003 105.106 334.968 105.8C335.767 106.376 336.278 107.196 336.758 108.03C338.084 110.333 338.494 112.902 338.889 115.473C338.963 115.948 339.014 116.426 339.069 116.904C339.142 117.542 339.391 117.995 340.12 118.036C340.785 118.073 340.969 118.553 341.046 119.123C341.177 120.086 341.111 121.041 341.007 122.001C340.96 122.443 340.986 122.883 341.462 123.117C342.083 123.42 342.727 123.096 342.853 122.383C342.943 121.863 342.978 121.332 343.019 120.805C343.075 120.084 343.491 119.747 344.165 119.827C345.255 119.959 346.367 119.889 347.436 120.247C347.992 120.434 348.452 120.577 348.738 121.213C349.076 121.964 350.017 122.029 350.457 121.327C350.825 120.738 351.246 120.558 351.862 120.566C353.491 120.59 355.122 120.575 356.75 120.63C357.814 120.666 357.959 120.848 358.102 121.906C358.305 123.422 358.312 123.351 359.848 123.49C364.861 123.943 369.894 123.972 374.914 124.266C377.162 124.398 379.418 124.354 381.672 124.391C382.478 124.404 383.277 124.458 383.999 124.744C384.026 125.307 383.682 125.287 383.416 125.304C382.079 125.394 380.74 125.521 379.4 125.532C374.847 125.574 370.302 125.875 365.751 125.961C363.361 126.006 360.966 126.072 358.566 126.371C359.888 126.371 361.208 126.361 362.53 126.377C363.006 126.383 363.483 126.435 363.955 126.5C364.149 126.526 364.3 126.687 364.285 126.901C364.271 127.116 364.101 127.23 363.9 127.262C363.664 127.299 363.424 127.336 363.187 127.328C360.308 127.236 357.442 127.517 354.568 127.608C345.657 127.893 336.739 127.747 327.83 127.974C322.607 128.106 317.383 128.04 312.164 128.238C305.316 128.496 298.465 128.584 291.618 128.809C287.46 128.947 283.309 129.309 279.152 129.536C276.093 129.703 273.03 129.817 269.97 129.956C269.981 129.997 269.991 130.041 270.003 130.083L269.986 130.103ZM101.364 128C98.0359 127.873 94.7068 127.858 91.3791 127.683C87.6416 127.487 83.9199 127.75 80.2283 128.414C79.2131 128.596 78.1518 128.503 77.1768 129.029C85.2386 128.685 93.3018 128.343 101.364 128ZM337.458 122.547C337.494 122.541 337.53 122.534 337.566 122.528V116.986C337.53 116.986 337.494 116.986 337.458 116.986V122.547Z" fill="#72100F"/>
</svg>
